<?xml version="1.0" encoding="UTF-8" standalone="no"?>
<svg
   xmlns:dc="http://purl.org/dc/elements/1.1/"
   xmlns:cc="http://creativecommons.org/ns#"
   xmlns:rdf="http://www.w3.org/1999/02/22-rdf-syntax-ns#"
   xmlns:svg="http://www.w3.org/2000/svg"
   xmlns="http://www.w3.org/2000/svg"
   xmlns:sodipodi="http://sodipodi.sourceforge.net/DTD/sodipodi-0.dtd"
   xmlns:inkscape="http://www.inkscape.org/namespaces/inkscape"
   width="64"
   height="64"
   viewBox="0 0 16.933333 16.933334"
   version="1.1"
   id="svg8"
   inkscape:version="0.92.5 (2060ec1f9f, 2020-04-08)"
   sodipodi:docname="21-Progress.svg"
   inkscape:export-filename="/home/wanzabuyumna/@WANZ_DESIGN/NICON STUDIO MAGANG/Style Line/Style Line/Icon 8/Icon 8.png"
   inkscape:export-xdpi="96"
   inkscape:export-ydpi="96">
  <defs
     id="defs2" />
  <sodipodi:namedview
     id="base"
     pagecolor="#ffffff"
     bordercolor="#959595"
     borderopacity="1"
     inkscape:pageopacity="0"
     inkscape:pageshadow="2"
     inkscape:zoom="4.5332692"
     inkscape:cx="-2.4511493"
     inkscape:cy="26.067485"
     inkscape:document-units="px"
     inkscape:current-layer="layer1"
     inkscape:document-rotation="0"
     showgrid="false"
     units="px"
     inkscape:window-width="1920"
     inkscape:window-height="1056"
     inkscape:window-x="0"
     inkscape:window-y="0"
     inkscape:window-maximized="1"
     inkscape:pagecheckerboard="0"
     inkscape:snap-bbox="true"
     inkscape:bbox-paths="true"
     inkscape:bbox-nodes="true">
    <inkscape:grid
       type="xygrid"
       id="grid816" />
  </sodipodi:namedview>
  <metadata
     id="metadata5">
    <rdf:RDF>
      <cc:Work
         rdf:about="">
        <dc:format>image/svg+xml</dc:format>
        <dc:type
           rdf:resource="http://purl.org/dc/dcmitype/StillImage" />
      </cc:Work>
    </rdf:RDF>
  </metadata>
  <g
     inkscape:label="21-Progress"
     inkscape:groupmode="layer"
     id="layer1">
    <path
       style="color:#000000;font-style:normal;font-variant:normal;font-weight:normal;font-stretch:normal;font-size:medium;line-height:normal;font-family:sans-serif;font-variant-ligatures:normal;font-variant-position:normal;font-variant-caps:normal;font-variant-numeric:normal;font-variant-alternates:normal;font-feature-settings:normal;text-indent:0;text-align:start;text-decoration:none;text-decoration-line:none;text-decoration-style:solid;text-decoration-color:#000000;letter-spacing:normal;word-spacing:normal;text-transform:none;writing-mode:lr-tb;direction:ltr;text-orientation:mixed;dominant-baseline:auto;baseline-shift:baseline;text-anchor:start;white-space:normal;shape-padding:0;clip-rule:nonzero;display:inline;overflow:visible;visibility:visible;opacity:1;isolation:auto;mix-blend-mode:normal;color-interpolation:sRGB;color-interpolation-filters:linearRGB;solid-color:#000000;solid-opacity:1;vector-effect:none;fill:#000000;fill-opacity:1;fill-rule:nonzero;stroke:none;stroke-width:0.52916664;stroke-linecap:round;stroke-linejoin:round;stroke-miterlimit:4;stroke-dasharray:none;stroke-dashoffset:0;stroke-opacity:1;color-rendering:auto;image-rendering:auto;shape-rendering:auto;text-rendering:auto;enable-background:accumulate"
       d="m 3.9687257,0.52914653 c -0.14532,5.8e-4 -0.2629699,0.11823 -0.2635502,0.26355001 V 1.8515465 c -5.556e-4,0.14612 0.1174301,0.26503 0.2635502,0.26562 h 0.2635499 l 0.00101,0.6144301 c -0.4339499,0.095 -0.8413198,0.26587 -1.20355,0.4981599 L 2.5574057,2.7574366 2.7439556,2.5703665 c 0.1707901,-0.16798 0.0483,-0.45832 -0.1911999,-0.4532 -0.0687,0.002 -0.1339801,0.0308 -0.1819001,0.0801 -0.4998356,0.4982589 -0.9978535,0.9967642 -1.49807,1.4960401 -0.25011,0.2501101 0.12506,0.62528 0.37517,0.3751699 l 0.18707,-0.1875899 0.47232,0.47181 c -0.3696,0.5762001 -0.58446,1.2623599 -0.58446,1.9967801 0,2.0426201 1.65037,3.7052003 3.7046902,3.7052003 2.0543099,0 3.7036459,-1.6625802 3.7036459,-3.7052003 0,-0.7345101 -0.214573,-1.42053 -0.5839438,-1.9967801 l 0.4718058,-0.47181 0.187585,0.1875899 c 0.250091,0.25894 0.633424,-0.1265198 0.373104,-0.3751699 -0.505707,-0.5073301 -1.0531789,-1.05271 -1.4960319,-1.4960401 -0.05622,-0.0586 -0.1362371,-0.0881 -0.2170411,-0.0801 -0.224064,0.0222 -0.3197141,0.29638 -0.1581341,0.4532 l 0.1875891,0.18758 -0.471809,0.47181 c -0.36259,-0.23265 -0.76893,-0.40328 -1.2035401,-0.4981599 L 5.8202764,2.1171665 h 0.26562 c 0.1461201,-5.9e-4 0.26411,-0.1195 0.2635501,-0.26562 V 0.79269654 C 6.3488856,0.64737653 6.2312156,0.52972653 6.0859057,0.52914653 Z m 8.9958293,0 c -0.154162,0.003 -0.264583,0.11693 -0.264583,0.26355001 V 1.3218665 c 0,0.17633 0.132332,0.26487 0.264583,0.2651 0.132251,-2.3e-4 0.264583,-0.0888 0.264583,-0.2651 V 0.79269654 c 0,-0.14662001 -0.110421,-0.26068001 -0.264583,-0.26355001 z m -1.620573,0.87125997 0.375171,0.37311 c 0.261058,0.24276 0.61656,-0.12302 0.375171,-0.37311 L 11.719153,1.0252366 c -0.04981,-0.0512 -0.11408,-0.077 -0.185518,-0.076995 -0.239186,-0.001995 -0.35477,0.2883849 -0.189653,0.4521649 z m 2.865975,-0.37516 -0.375171,0.3751699 c -0.241389,0.2501 0.114113,0.61587 0.375171,0.37311 l 0.375171,-0.37311 c 0.165118,-0.16378 0.04953,-0.45400991 -0.189652,-0.45216489 -0.07144,-4.98e-6 -0.135709,0.0257951 -0.185519,0.076995 z M 4.7614356,2.1171664 h 0.52969 l 5.027e-4,0.52916 -0.52916,-5.106e-4 z m 8.0160514,0.076 -2.117184,2.1171801 c -0.165688,0.1667201 -0.04798,0.45059 0.187069,0.45114 h 1.05885 v 0.6289001 c 0,1.32002 -0.479454,2.5466299 -1.39268,3.6054699 H 9.5239377 c -0.440329,0 -0.792716,0.35755 -0.792716,0.79271 v 0.7126205 c -0.344728,0.21663 -0.710208,0.41579 -1.1069089,0.601 -0.1117251,-0.30071 -0.4019572,-0.51883 -0.746727,-0.51883 h -1.05781 c -0.4403301,0 -0.7927202,0.35755 -0.7927202,0.79271 v 2.91094 H 3.9687257 v -1.3224 c 0,-0.43517 -0.35188,-0.79272 -0.7953,-0.79272 H 2.1156056 c -0.44033,0 -0.79272,0.35755 -0.79272,0.79272 l -5e-4,1.3224 c -0.43566,0 -0.79322,0.35187 -0.79322,0.7953 v 0.52916 c 0,0.44033 0.35756,0.79272 0.79272,0.79272 H 15.611452 c 0.435161,0 0.792716,-0.35239 0.792716,-0.79272 v -0.52916 c 0,-0.44343 -0.357555,-0.7953 -0.792716,-0.7953 h -0.5302 l 0.001,-6.0859405 c 2e-6,-0.43516 -0.351354,-0.79271 -0.794783,-0.79271 h -0.511597 c 0.161695,-0.60892 0.24753,-1.2783201 0.24753,-2.0179699 v -0.6289 h 1.05885 c 0.234305,-0.00201 0.350695,-0.2849501 0.185519,-0.45114 L 13.152137,2.1931665 c -0.05088,-0.0501 -0.11983,-0.0775 -0.1912,-0.076 -0.06869,5.398e-4 -0.134479,0.0278 -0.18345,0.076 z m 0.187551,0.56272 1.476395,1.4763901 h -0.683678 c -0.146119,5.82e-4 -0.264107,0.1195001 -0.263549,0.2656199 v 0.8924502 c 0,0.75682 -0.09476,1.4222198 -0.268201,2.01797 -0.439065,0 -0.79065,0.36053 -0.79065,0.7927099 v 0.86042 C 12.134771,9.4852567 11.778393,9.8527968 11.377022,10.177137 V 9.7885266 c 0,-0.25756 -0.118016,-0.48582 -0.310575,-0.6309699 0.888718,-1.1046401 1.368908,-2.3942601 1.368908,-3.76721 V 4.4978965 c 5.56e-4,-0.14693 -0.118689,-0.2661798 -0.265616,-0.2656199 h -0.681613 z m -7.9374924,0.42012 c 1.7514702,0 3.1744751,1.4168102 3.1744751,3.1734501 0,1.7566302 -1.429535,3.1760301 -3.1744751,3.1760301 -1.7449499,0 -3.17552,-1.4193999 -3.17552,-3.1760301 0,-1.7566399 1.42405,-3.1734501 3.17552,-3.1734501 z m 0,0.5291601 c -1.06938,-10e-8 -2.0361,0.6444799 -2.44533,1.63246 -0.40924,0.9879801 -0.18204,2.1268601 0.57412,2.88303 C 3.9125057,8.9768267 5.0508758,9.2040168 6.0388458,8.7947767 7.0268257,8.3855468 7.6738877,7.4188368 7.6738877,6.3494565 7.6733586,6.2032867 7.5544419,6.0853365 7.4082707,6.0859067 H 5.2910957 V 3.9687166 C 5.290593,3.8233067 5.1729458,3.7056867 5.0275456,3.7051665 Z m 5.5557254,5.8198002 c 0.142888,0 0.264531,0.1124 0.264584,0.2635499 l 0.0015,4.4984404 H 9.2618627 l -0.0016,-4.4984404 c -5.3e-5,-0.1511499 0.122728,-0.2635499 0.263595,-0.2635499 z m 1.853634,4.7619903 h -1.058334 l -0.0015,-3.44631 c 0.384534,-0.27518 0.742869,-0.58486 1.059859,-0.9374103 z m -3.7057173,-3.16649 v 0.44132 c -0.344481,0.114 -0.6983739,0.21214 -1.0583329,0.29869 v -0.19947 c 0.3728458,-0.16686 0.7253159,-0.34617 1.0583329,-0.54054 z m 0,0.99633 0.0016,2.17041 H 7.6728949 v -1.88258 c 0.3576669,-0.0826 0.7113638,-0.17887 1.0583328,-0.28783 z m -6.6156121,0.58446 h 1.0578201 c 0.1428799,0 0.26613,0.11239 0.26613,0.26355 v 1.3224 H 1.8520256 v -1.3224 c 0,-0.15116 0.12273,-0.26355 0.26355,-0.26355 z m -0.79375,2.11511 H 15.611388 c 0.151156,0 0.26355,0.12325 0.26355,0.26614 v 0.52916 c 0,0.14082 -0.112394,0.26355 -0.26355,0.26355 H 1.3218256 c -0.15116,0 -0.26355,-0.12273 -0.26355,-0.26355 v -0.52916 c 0,-0.14289 0.11239,-0.26614 0.26355,-0.26614 z"
       id="rect2241"
       inkscape:connector-curvature="0"
       sodipodi:nodetypes="ccccccccccccccccccccccccccccccccccccccccccccccccccccccccccccccccccccccccccccccccccccccccccccccccccccccccccccccccccccccccccccccccccccccccccccccccccccccccccccccccccccc" />
  </g>
</svg>
