<?xml version="1.0" encoding="UTF-8" standalone="no"?> <svg width="64" height="64" viewBox="0 0 64 64" fill="none" xmlns="http://www.w3.org/2000/svg">
<path d="M61 11V53C61 54.0609 60.5786 55.0783 59.8284 55.8284C59.0783 56.5786 58.0609 57 57 57H11C10.2302 56.9999 9.47693 56.777 8.83104 56.3582C8.18514 55.9395 7.67424 55.3427 7.36 54.64C7.12329 54.1256 7.00049 53.5662 7 53V11C7 9.93913 7.42143 8.92172 8.17157 8.17157C8.92172 7.42143 9.93913 7 11 7H57C57.5662 7.00049 58.1256 7.12329 58.64 7.36C59.3427 7.67424 59.9395 8.18514 60.3582 8.83104C60.777 9.47693 60.9999 10.2302 61 11V11Z" fill="#E6E7E8"/>
<path d="M59 9V51C59 52.0609 58.5786 53.0783 57.8284 53.8284C57.0783 54.5786 56.0609 55 55 55H9C8.43379 54.9995 7.87436 54.8767 7.36 54.64C7.12329 54.1256 7.00049 53.5662 7 53V11C7 9.93913 7.42143 8.92172 8.17157 8.17157C8.92172 7.42143 9.93913 7 11 7H57C57.5662 7.00049 58.1256 7.12329 58.64 7.36C58.8767 7.87436 58.9995 8.43379 59 9V9Z" fill="#D8D7DA"/>
<path d="M57 7V11H3V7C3 5.93913 3.42143 4.92172 4.17157 4.17157C4.92172 3.42143 5.93913 3 7 3H53C54.0609 3 55.0783 3.42143 55.8284 4.17157C56.5786 4.92172 57 5.93913 57 7Z" fill="#FF6243"/>
<path d="M57 11V49C57 50.0609 56.5786 51.0783 55.8284 51.8284C55.0783 52.5786 54.0609 53 53 53H7C5.93913 53 4.92172 52.5786 4.17157 51.8284C3.42143 51.0783 3 50.0609 3 49V11H57Z" fill="#E6E7E8"/>
<path d="M45 55.54L45.84 57H41.32C41.236 56.6382 41.2531 56.2602 41.3695 55.9074C41.4859 55.5547 41.6971 55.2408 41.98 55C42.0726 54.9277 42.1695 54.8609 42.27 54.8C42.4976 54.6685 42.749 54.5834 43.0097 54.5494C43.2704 54.5155 43.5352 54.5334 43.7889 54.6022C44.0426 54.6709 44.2803 54.7892 44.4881 54.9502C44.6959 55.1111 44.8699 55.3116 45 55.54V55.54Z" fill="#D8D7DA"/>
<path d="M61 53C61 54.0609 60.5786 55.0783 59.8284 55.8284C59.0783 56.5786 58.0609 57 57 57H47V47C47.0016 46.4701 47.2128 45.9623 47.5875 45.5875C47.9623 45.2128 48.4701 45.0016 49 45C49.5292 45.0039 50.0356 45.2159 50.4099 45.5901C50.7841 45.9644 50.9961 46.4708 51 47V53C51.0184 52.4754 51.235 51.9773 51.6062 51.6062C51.9773 51.235 52.4754 51.0184 53 51C53.5292 51.0039 54.0356 51.2159 54.4099 51.5901C54.7841 51.9644 54.9961 52.4708 55 53V54C55.0016 53.4701 55.2128 52.9623 55.5875 52.5875C55.9623 52.2128 56.4701 52.0016 57 52C57.2626 51.9986 57.5228 52.0501 57.765 52.1515C58.0073 52.2529 58.2266 52.402 58.41 52.59C58.4718 52.6485 58.5287 52.7121 58.58 52.78C58.8551 53.1268 59.0033 53.5573 59 54V55C59.0016 54.4701 59.2128 53.9623 59.5875 53.5875C59.9623 53.2128 60.4701 53.0016 61 53Z" fill="#D8D7DA"/>
<path d="M61 53V62H43.27L40.38 57L39.54 55.54C39.302 55.1327 39.2157 54.6544 39.2962 54.1897C39.3767 53.7249 39.6189 53.3035 39.98 53C40.0726 52.9277 40.1695 52.8609 40.27 52.8C40.4976 52.6685 40.749 52.5834 41.0097 52.5494C41.2704 52.5155 41.5352 52.5334 41.7889 52.6022C42.0426 52.6709 42.2803 52.7892 42.4881 52.9502C42.6959 53.1111 42.8699 53.3116 43 53.54L45 57V45C45.0016 44.4701 45.2128 43.9623 45.5875 43.5875C45.9623 43.2128 46.47 43.0016 47 43C47.5292 43.0039 48.0356 43.2159 48.4099 43.5901C48.7841 43.9644 48.9961 44.4708 49 45V51C49.0184 50.4754 49.235 49.9773 49.6062 49.6062C49.9773 49.235 50.4754 49.0184 51 49C51.5292 49.0039 52.0356 49.2159 52.4099 49.5901C52.7841 49.9644 52.9961 50.4708 53 51V52C53.0016 51.4701 53.2128 50.9623 53.5875 50.5875C53.9623 50.2128 54.47 50.0016 55 50C55.2626 49.9986 55.5228 50.0501 55.765 50.1515C56.0073 50.2529 56.2266 50.402 56.41 50.59C56.4718 50.6485 56.5287 50.7121 56.58 50.78C56.8551 51.1268 57.0033 51.5573 57 52V53C57.0016 52.4701 57.2128 51.9623 57.5875 51.5875C57.9623 51.2128 58.47 51.0016 59 51C59.5292 51.0039 60.0356 51.2159 60.4099 51.5901C60.7841 51.9644 60.9961 52.4708 61 53V53Z" fill="#FFC477"/>
<path d="M35 23C35 23 28 31 21 31C14 31 7 23 7 23C7 23 14 15 21 15C28 15 35 23 35 23Z" fill="#FFA733"/>
<path d="M21 27C23.2091 27 25 25.2091 25 23C25 20.7909 23.2091 19 21 19C18.7909 19 17 20.7909 17 23C17 25.2091 18.7909 27 21 27Z" fill="#FF6243"/>
<path d="M22 22H20V24H22V22Z" fill="#ED1C24"/>
<path d="M21 28C20.0111 28 19.0444 27.7068 18.2222 27.1574C17.3999 26.6079 16.759 25.8271 16.3806 24.9134C16.0022 23.9998 15.9031 22.9945 16.0961 22.0246C16.289 21.0546 16.7652 20.1637 17.4645 19.4645C18.1637 18.7652 19.0546 18.289 20.0246 18.0961C20.9945 17.9031 21.9998 18.0022 22.9134 18.3806C23.8271 18.759 24.6079 19.3999 25.1574 20.2222C25.7068 21.0444 26 22.0111 26 23C25.9984 24.3256 25.4711 25.5964 24.5338 26.5338C23.5964 27.4711 22.3256 27.9984 21 28V28ZM21 20C20.4067 20 19.8266 20.1759 19.3333 20.5056C18.8399 20.8352 18.4554 21.3038 18.2284 21.852C18.0013 22.4001 17.9419 23.0033 18.0576 23.5853C18.1734 24.1672 18.4591 24.7018 18.8787 25.1213C19.2982 25.5409 19.8328 25.8266 20.4147 25.9424C20.9967 26.0581 21.5999 25.9987 22.1481 25.7716C22.6962 25.5446 23.1648 25.1601 23.4944 24.6667C23.8241 24.1734 24 23.5933 24 23C24 22.2044 23.6839 21.4413 23.1213 20.8787C22.5587 20.3161 21.7957 20 21 20Z" fill="#ED1C24"/>
<path d="M38 34H36V41H38V34Z" fill="#FFA733"/>
<path d="M42 31H40V41H42V31Z" fill="#FFA733"/>
<path d="M46 29H44V41H46V29Z" fill="#FFA733"/>
<path d="M50 25H48V41H50V25Z" fill="#FFA733"/>
<path d="M34 32H32V41H34V32Z" fill="#FFA733"/>
<path d="M49 16H45V18H46.586L35.293 29.293L36.707 30.707L48 19.414V21H50V17C50 16.7348 49.8946 16.4804 49.7071 16.2929C49.5196 16.1054 49.2652 16 49 16Z" fill="#FF6243"/>
<path d="M52 42H29C28.7348 42 28.4804 41.8946 28.2929 41.7071C28.1054 41.5196 28 41.2652 28 41V30H30V40H52V42Z" fill="#EE8700"/>
<path d="M12 36H10V38H12V36Z" fill="#FFA733"/>
<path d="M22 36H14V38H22V36Z" fill="#FFA733"/>
<path d="M22 40H10V42H22V40Z" fill="#FFA733"/>
<path d="M18 44H10V46H18V44Z" fill="#FFA733"/>
<path d="M22 44H20V46H22V44Z" fill="#FFA733"/>
<path d="M8 6H6V8H8V6Z" fill="#ED1C24"/>
<path d="M12 6H10V8H12V6Z" fill="#ED1C24"/>
<path d="M16 6H14V8H16V6Z" fill="#ED1C24"/>
<path d="M58 52C58 51.4477 57.5523 51 57 51C56.4477 51 56 51.4477 56 52V55C56 55.5523 56.4477 56 57 56C57.5523 56 58 55.5523 58 55V52Z" fill="#FFB655"/>
<path d="M54 51C54 50.4477 53.5523 50 53 50C52.4477 50 52 50.4477 52 51V54C52 54.5523 52.4477 55 53 55C53.5523 55 54 54.5523 54 54V51Z" fill="#FFB655"/>
<path d="M50 51C50 50.4477 49.5523 50 49 50C48.4477 50 48 50.4477 48 51V54C48 54.5523 48.4477 55 49 55C49.5523 55 50 54.5523 50 54V51Z" fill="#FFB655"/>
</svg>
