<?xml version="1.0" encoding="UTF-8" standalone="no"?> <svg width="64" height="64" viewBox="0 0 64 64" fill="none" xmlns="http://www.w3.org/2000/svg">
<path d="M15.78 3.51001H4C3.73478 3.51001 3.48043 3.61537 3.29289 3.8029C3.10536 3.99044 3 4.24479 3 4.51001V59.51C3 59.7752 3.10536 60.0296 3.29289 60.2171C3.48043 60.4047 3.73478 60.51 4 60.51H15.78C15.9113 60.51 16.0414 60.4841 16.1627 60.4339C16.284 60.3836 16.3942 60.31 16.4871 60.2171C16.58 60.1243 16.6536 60.014 16.7039 59.8927C16.7541 59.7714 16.78 59.6413 16.78 59.51V4.51001C16.78 4.37869 16.7541 4.24865 16.7039 4.12733C16.6536 4.006 16.58 3.89576 16.4871 3.8029C16.3942 3.71004 16.284 3.63638 16.1627 3.58613C16.0414 3.53588 15.9113 3.51001 15.78 3.51001V3.51001ZM14.78 58.51H5V5.51001H14.78V58.51Z" fill="black"/>
<path d="M7.93005 44.7799H11.8601C12.1253 44.7799 12.3796 44.6745 12.5672 44.487C12.7547 44.2994 12.8601 44.0451 12.8601 43.7799V8.10986C12.8601 7.84465 12.7547 7.59029 12.5672 7.40276C12.3796 7.21522 12.1253 7.10986 11.8601 7.10986H7.93005C7.66484 7.10986 7.41048 7.21522 7.22295 7.40276C7.03541 7.59029 6.93005 7.84465 6.93005 8.10986V43.7799C6.93005 44.0451 7.03541 44.2994 7.22295 44.487C7.41048 44.6745 7.66484 44.7799 7.93005 44.7799ZM8.93005 9.10986H10.8601V42.7799H8.93005V9.10986Z" fill="black"/>
<path d="M7.93005 54.5999H11.8601C12.1253 54.5999 12.3796 54.4945 12.5672 54.307C12.7547 54.1194 12.8601 53.8651 12.8601 53.5999V49.3499C12.8601 49.0846 12.7547 48.8303 12.5672 48.6427C12.3796 48.4552 12.1253 48.3499 11.8601 48.3499H7.93005C7.66484 48.3499 7.41048 48.4552 7.22295 48.6427C7.03541 48.8303 6.93005 49.0846 6.93005 49.3499V53.5999C6.93005 53.8651 7.03541 54.1194 7.22295 54.307C7.41048 54.4945 7.66484 54.5999 7.93005 54.5999ZM8.93005 50.3499H10.8601V52.5999H8.93005V50.3499Z" fill="black"/>
<path d="M23.64 44.7799H27.57C27.8352 44.7799 28.0896 44.6745 28.2771 44.487C28.4647 44.2994 28.57 44.0451 28.57 43.7799V8.10986C28.57 7.84465 28.4647 7.59029 28.2771 7.40276C28.0896 7.21522 27.8352 7.10986 27.57 7.10986H23.64C23.3748 7.10986 23.1204 7.21522 22.9329 7.40276C22.7454 7.59029 22.64 7.84465 22.64 8.10986V43.7799C22.64 44.0451 22.7454 44.2994 22.9329 44.487C23.1204 44.6745 23.3748 44.7799 23.64 44.7799ZM24.64 9.10986H26.57V42.7799H24.64V9.10986Z" fill="black"/>
<path d="M23.64 54.5999H27.57C27.8352 54.5999 28.0896 54.4945 28.2771 54.307C28.4647 54.1194 28.57 53.8651 28.57 53.5999V49.3499C28.57 49.0846 28.4647 48.8303 28.2771 48.6427C28.0896 48.4552 27.8352 48.3499 27.57 48.3499H23.64C23.3748 48.3499 23.1204 48.4552 22.9329 48.6427C22.7454 48.8303 22.64 49.0846 22.64 49.3499V53.5999C22.64 53.8651 22.7454 54.1194 22.9329 54.307C23.1204 54.4945 23.3748 54.5999 23.64 54.5999ZM24.64 50.3499H26.57V52.5999H24.64V50.3499Z" fill="black"/>
<path d="M61 56.2099L44.65 3.69992C44.6111 3.57417 44.5479 3.45733 44.4638 3.35608C44.3797 3.25483 44.2764 3.17118 44.16 3.10992C44.0468 3.04241 43.9214 2.99794 43.7909 2.97906C43.6605 2.96018 43.5276 2.96727 43.4 2.99992L32.49 6.42992V4.50992C32.49 4.24471 32.3846 3.99035 32.1971 3.80282C32.0095 3.61528 31.7552 3.50992 31.49 3.50992H19.71C19.4447 3.50992 19.1904 3.61528 19.0029 3.80282C18.8153 3.99035 18.71 4.24471 18.71 4.50992V59.5099C18.71 59.7751 18.8153 60.0295 19.0029 60.217C19.1904 60.4046 19.4447 60.5099 19.71 60.5099H31.49C31.7552 60.5099 32.0095 60.4046 32.1971 60.217C32.3846 60.0295 32.49 59.7751 32.49 59.5099V10.9999L47.79 60.2999C47.8288 60.4257 47.8921 60.5425 47.9762 60.6438C48.0602 60.745 48.1635 60.8287 48.28 60.8899C48.4253 60.9644 48.5867 61.0022 48.75 60.9999C48.8329 61.0113 48.917 61.0113 49 60.9999L60.3 57.4699C60.5502 57.3892 60.7586 57.2132 60.88 56.9799C60.9505 56.8661 60.9974 56.7394 61.0181 56.6071C61.0387 56.4748 61.0325 56.3398 61 56.2099V56.2099ZM30.49 58.4899H20.71V5.48992H30.49V58.4899ZM49.41 58.7499L33.7 8.14992L43 5.24992L58.71 55.8499L49.41 58.7499Z" fill="black"/>
<path d="M41.4801 7.71003C41.2459 7.58714 40.9727 7.56197 40.7201 7.64003L37.0001 8.81003C36.7469 8.88838 36.5351 9.06405 36.4114 9.29843C36.2876 9.53282 36.262 9.80675 36.3401 10.06L46.8901 44.13C46.9661 44.3822 47.1386 44.5943 47.3701 44.72C47.5145 44.798 47.6759 44.8392 47.8401 44.84C47.942 44.8388 48.0432 44.8219 48.1401 44.79L51.8901 43.63C52.0166 43.5913 52.1341 43.5279 52.2359 43.4434C52.3377 43.3589 52.4218 43.255 52.4832 43.1378C52.5445 43.0207 52.5821 42.8924 52.5936 42.7606C52.605 42.6288 52.5903 42.4961 52.5501 42.37L42.0001 8.30003C41.9088 8.04396 41.7226 7.83274 41.4801 7.71003V7.71003ZM48.4801 42.58L38.4801 10.42L40.3201 9.85003L50.3401 42L48.4801 42.58Z" fill="black"/>
<path d="M48.6 48.6798C48.4824 48.9191 48.4575 49.1933 48.53 49.4498L49.8 53.5098C49.8388 53.6356 49.9021 53.7524 49.9862 53.8537C50.0702 53.9549 50.1735 54.0386 50.29 54.0998C50.5258 54.2167 50.7967 54.2417 51.05 54.1698L54.8 52.9998C54.9257 52.961 55.0426 52.8977 55.1438 52.8136C55.245 52.7296 55.3287 52.6263 55.39 52.5098C55.5129 52.2757 55.538 52.0025 55.46 51.7498L54.2 47.6898C54.1644 47.5606 54.1033 47.4399 54.0201 47.3348C53.937 47.2297 53.8336 47.1423 53.7161 47.078C53.5986 47.0136 53.4693 46.9735 53.336 46.9601C53.2026 46.9467 53.068 46.9602 52.94 46.9998L49.19 48.1598C48.9339 48.2511 48.7227 48.4373 48.6 48.6798V48.6798ZM52.6 49.2398L53.27 51.3898L51.41 51.9998L50.74 49.8498L52.6 49.2398Z" fill="black"/>
</svg>
